<svg xmlns="http://www.w3.org/2000/svg" xmlns:xlink="http://www.w3.org/1999/xlink" contentStyleType="text/css" height="347px" preserveAspectRatio="none" style="width:800px;height:347px;background:#FFFFFF;" version="1.1" viewBox="0 0 800 347" width="800px" zoomAndPan="magnify"><defs/><g><rect fill="#F1F1F1" height="62.5938" rx="12.5" ry="12.5" style="stroke:#181818;stroke-width:1.5;" width="65.7871" x="366.4819" y="10"/><text fill="#000000" font-family="sans-serif" font-size="14" font-weight="bold" lengthAdjust="spacing" textLength="45.7871" x="376.4819" y="32.9951">IPBES</text><line style="stroke:#181818;stroke-width:1.0;" x1="366.4819" x2="432.269" y1="41.2969" y2="41.2969"/><text fill="#000000" font-family="sans-serif" font-size="14" lengthAdjust="spacing" textLength="4.4502" x="376.4819" y="59.292">&#160;</text><rect fill="#F1F1F1" height="62.5938" rx="12.5" ry="12.5" style="stroke:#181818;stroke-width:1.5;" width="178.9355" x="309.9077" y="97.5938"/><text fill="#000000" font-family="sans-serif" font-size="14" font-weight="bold" lengthAdjust="spacing" textLength="94.4043" x="319.9077" y="120.5889">Assessment</text><line style="stroke:#181818;stroke-width:1.0;" x1="309.9077" x2="488.8433" y1="128.8906" y2="128.8906"/><text fill="#000000" font-family="sans-serif" font-size="14" lengthAdjust="spacing" textLength="158.9355" x="319.9077" y="146.8857">Add assessment name</text><rect fill="#F1F1F1" height="62.5938" rx="12.5" ry="12.5" style="stroke:#181818;stroke-width:1.5;" width="120.8916" x="88.1216" y="185.1875"/><text fill="#000000" font-family="sans-serif" font-size="14" font-weight="bold" lengthAdjust="spacing" textLength="34.2754" x="98.1216" y="208.1826">SPM</text><line style="stroke:#181818;stroke-width:1.0;" x1="88.1216" x2="209.0132" y1="216.4844" y2="216.4844"/><text fill="#000000" font-family="sans-serif" font-size="14" lengthAdjust="spacing" textLength="100.8916" x="98.1216" y="234.4795">Add Language</text><rect fill="#F1F1F1" height="62.5938" rx="12.5" ry="12.5" style="stroke:#181818;stroke-width:1.5;" width="121.3428" x="20" y="272.7813"/><text fill="#000000" font-family="sans-serif" font-size="14" font-weight="bold" lengthAdjust="spacing" textLength="50.75" x="30" y="295.7764">Figure</text><line style="stroke:#181818;stroke-width:1.0;" x1="20" x2="141.3428" y1="304.0781" y2="304.0781"/><text fill="#000000" font-family="sans-serif" font-size="14" lengthAdjust="spacing" textLength="101.3428" x="30" y="322.0732">Add Figure x.y</text><path d="M148.5674,247.7813 L148.5674,250.7813 C148.5674,257.7813 80.6714,262.7813 80.6714,269.7813 L80.6714,272.7813 " fill="none" style="stroke:#181818;stroke-width:1.0;"/><rect fill="#F1F1F1" height="62.5938" rx="12.5" ry="12.5" style="stroke:#181818;stroke-width:1.5;" width="115.792" x="161.3428" y="272.7813"/><text fill="#000000" font-family="sans-serif" font-size="14" font-weight="bold" lengthAdjust="spacing" textLength="43.3125" x="171.3428" y="295.7764">Table</text><line style="stroke:#181818;stroke-width:1.0;" x1="161.3428" x2="277.1348" y1="304.0781" y2="304.0781"/><text fill="#000000" font-family="sans-serif" font-size="14" lengthAdjust="spacing" textLength="95.792" x="171.3428" y="322.0732">Add Table x.y</text><path d="M148.5674,247.7813 L148.5674,250.7813 C148.5674,257.7813 219.2388,262.7813 219.2388,269.7813 L219.2388,272.7813 " fill="none" style="stroke:#181818;stroke-width:1.0;"/><path d="M399.3755,160.1875 L399.3755,163.1875 C399.3755,170.1875 148.5674,175.1875 148.5674,182.1875 L148.5674,185.1875 " fill="none" style="stroke:#181818;stroke-width:1.0;"/><rect fill="#F1F1F1" height="62.5938" rx="12.5" ry="12.5" style="stroke:#181818;stroke-width:1.5;" width="124.959" x="475.4634" y="185.1875"/><text fill="#000000" font-family="sans-serif" font-size="14" font-weight="bold" lengthAdjust="spacing" textLength="62.8018" x="485.4634" y="208.1826">Chapter</text><line style="stroke:#181818;stroke-width:1.0;" x1="475.4634" x2="600.4224" y1="216.4844" y2="216.4844"/><text fill="#000000" font-family="sans-serif" font-size="14" lengthAdjust="spacing" textLength="100.5088" x="489.9136" y="234.4795">Add Chapter x</text><rect fill="#F1F1F1" height="62.5938" rx="12.5" ry="12.5" style="stroke:#181818;stroke-width:1.5;" width="121.3428" x="297.1348" y="272.7813"/><text fill="#000000" font-family="sans-serif" font-size="14" font-weight="bold" lengthAdjust="spacing" textLength="50.75" x="307.1348" y="295.7764">Figure</text><line style="stroke:#181818;stroke-width:1.0;" x1="297.1348" x2="418.4775" y1="304.0781" y2="304.0781"/><text fill="#000000" font-family="sans-serif" font-size="14" lengthAdjust="spacing" textLength="101.3428" x="307.1348" y="322.0732">Add Figure x.y</text><path d="M537.9429,247.7813 L537.9429,250.7813 C537.9429,257.7813 357.8062,262.7813 357.8062,269.7813 L357.8062,272.7813 " fill="none" style="stroke:#181818;stroke-width:1.0;"/><rect fill="#F1F1F1" height="62.5938" rx="12.5" ry="12.5" style="stroke:#181818;stroke-width:1.5;" width="115.792" x="438.4775" y="272.7813"/><text fill="#000000" font-family="sans-serif" font-size="14" font-weight="bold" lengthAdjust="spacing" textLength="43.3125" x="448.4775" y="295.7764">Table</text><line style="stroke:#181818;stroke-width:1.0;" x1="438.4775" x2="554.2695" y1="304.0781" y2="304.0781"/><text fill="#000000" font-family="sans-serif" font-size="14" lengthAdjust="spacing" textLength="95.792" x="448.4775" y="322.0732">Add Table x.y</text><path d="M537.9429,247.7813 L537.9429,250.7813 C537.9429,257.7813 496.3735,262.7813 496.3735,269.7813 L496.3735,272.7813 " fill="none" style="stroke:#181818;stroke-width:1.0;"/><rect fill="#F1F1F1" height="36.2969" rx="12.5" ry="12.5" style="stroke:#181818;stroke-width:1.5;" width="204.4814" x="574.2695" y="272.7813"/><text fill="#000000" font-family="sans-serif" font-size="14" font-weight="bold" lengthAdjust="spacing" textLength="184.4814" x="584.2695" y="295.7764">Data Management Plan</text><path d="M537.9429,247.7813 L537.9429,250.7813 C537.9429,257.7813 676.5103,262.7813 676.5103,269.7813 L676.5103,272.7813 " fill="none" style="stroke:#181818;stroke-width:1.0;"/><path d="M399.3755,160.1875 L399.3755,163.1875 C399.3755,170.1875 537.9429,175.1875 537.9429,182.1875 L537.9429,185.1875 " fill="none" style="stroke:#181818;stroke-width:1.0;"/><path d="M399.3755,72.5938 L399.3755,75.5938 C399.3755,82.5938 399.3755,87.5938 399.3755,94.5938 L399.3755,97.5938 " fill="none" style="stroke:#181818;stroke-width:1.0;"/><rect fill="#F1F1F1" height="36.2969" rx="12.5" ry="12.5" style="stroke:#181818;stroke-width:1.5;" width="86.9307" x="508.8433" y="97.5938"/><text fill="#000000" font-family="sans-serif" font-size="14" font-weight="bold" lengthAdjust="spacing" textLength="66.9307" x="518.8433" y="120.5889">Decision</text><path d="M399.3755,72.5938 L399.3755,75.5938 C399.3755,82.5938 552.3086,87.5938 552.3086,94.5938 L552.3086,97.5938 " fill="none" style="stroke:#181818;stroke-width:1.0;"/><!--SRC=[hP5DRy8m38Rl-HK-GYNGXjY7EF5HcCQeXjR1YOlRUbqqwbIfo-3VBm4wnCxBBU_x9BPV3oj1AuNchC1IYIb132H6n1IGQKkfQCCgW21uNewdSH1ikEFEncbU75KLLLL1B1Tdb6M0lpem5kHWJyVBw1fR8ESrvaVV0pETrvQkcPC6- -wXeTunsVw1ZbB3E6JoYQMGlK3WgRCA-_-jvvaG1I52TiCSfrvkaOFW5598gQvSZEu-91VqEMpb6Lb52zYHzJxSTditlNxt8I71kzQAlzXyCwIcABMh9hgWjcezBHTGcTgcv1PKYTL9xNVKLdFS8RpLxBa1l9R4y_2b4M3AEsqD- -RKV1rTWFj-Pwm5OhAk3LX7AgGFhBVYNgGcqvmFOFK-wpogPba385OJu_wr1-V5Fm00]--></g></svg>