<svg xmlns="http://www.w3.org/2000/svg" xmlns:xlink="http://www.w3.org/1999/xlink" contentStyleType="text/css" height="1364px" preserveAspectRatio="none" style="width:1382px;height:1364px;background:#FFFFFF;" version="1.1" viewBox="0 0 1382 1364" width="1382px" zoomAndPan="magnify"><defs/><g><rect fill="#F1F1F1" height="64.9219" rx="12.5" ry="12.5" style="stroke:#181818;stroke-width:1.5;" width="72.3281" x="10" y="648.7266"/><text fill="#000000" font-family="sans-serif" font-size="16" font-weight="bold" lengthAdjust="spacing" textLength="52.3281" x="20" y="673.5781">IPBES</text><line style="stroke:#181818;stroke-width:1.0;" x1="10" x2="82.3281" y1="682.3516" y2="682.3516"/><text fill="#000000" font-family="sans-serif" font-size="14" lengthAdjust="spacing" textLength="4.4502" x="20" y="700.3467">&#160;</text><rect fill="#F1F1F1" height="81.2188" rx="12.5" ry="12.5" style="stroke:#181818;stroke-width:1.5;" width="316.96" x="132.3281" y="640.5781"/><text fill="#000000" font-family="sans-serif" font-size="16" font-weight="bold" lengthAdjust="spacing" textLength="107.8906" x="142.3281" y="665.4297">Assessment</text><line style="stroke:#181818;stroke-width:1.0;" x1="132.3281" x2="449.2881" y1="674.2031" y2="674.2031"/><text fill="#000000" font-family="sans-serif" font-size="14" lengthAdjust="spacing" textLength="8.9004" x="142.3281" y="692.1982">&#160;&#160;</text><text fill="#000000" font-family="sans-serif" font-size="14" font-weight="bold" lengthAdjust="spacing" textLength="31.083" x="151.2285" y="692.1982">XYZ</text><text fill="#000000" font-family="sans-serif" font-size="14" lengthAdjust="spacing" textLength="252.5264" x="186.7617" y="692.1982">three letter assesment abbreviation</text><text fill="#000000" font-family="sans-serif" font-size="14" lengthAdjust="spacing" textLength="4.4502" x="142.3281" y="708.4951">&#160;</text><rect fill="#F1F1F1" height="81.2188" rx="12.5" ry="12.5" style="stroke:#181818;stroke-width:1.5;" width="106.1875" x="499.2881" y="269.7656"/><text fill="#000000" font-family="sans-serif" font-size="16" font-weight="bold" lengthAdjust="spacing" textLength="39.1719" x="509.2881" y="294.6172">SPM</text><line style="stroke:#181818;stroke-width:1.0;" x1="499.2881" x2="605.4756" y1="303.3906" y2="303.3906"/><text fill="#000000" font-family="sans-serif" font-size="14" lengthAdjust="spacing" textLength="8.9004" x="509.2881" y="321.3857">&#160;&#160;</text><text fill="#000000" font-family="sans-serif" font-size="14" font-weight="bold" lengthAdjust="spacing" textLength="77.2871" x="518.1885" y="321.3857">Language</text><text fill="#000000" font-family="sans-serif" font-size="14" lengthAdjust="spacing" textLength="4.4502" x="509.2881" y="337.6826">&#160;</text><rect fill="#F1F1F1" height="57.25" rx="12.5" ry="12.5" style="stroke:#181818;stroke-width:1.5;" width="123.1748" x="655.4756" y="20"/><text fill="#000000" font-family="sans-serif" font-size="18" font-weight="bold" lengthAdjust="spacing" textLength="103.1748" x="665.4756" y="46.708">Document</text><text fill="#000000" font-family="sans-serif" font-size="14" lengthAdjust="spacing" textLength="4.4502" x="665.4756" y="63.9482">&#160;</text><path d="M605.4756,310.375 L615.4756,310.375 C630.4756,310.375 630.4756,48.625 645.4756,48.625 L655.4756,48.625 " fill="none" style="stroke:#181818;stroke-width:1.0;"/><rect fill="#F1F1F1" height="83.5469" rx="12.5" ry="12.5" style="stroke:#181818;stroke-width:1.5;" width="107.999" x="655.4756" y="132.7266"/><text fill="#000000" font-family="sans-serif" font-size="18" font-weight="bold" lengthAdjust="spacing" textLength="65.25" x="665.4756" y="159.4346">Figure</text><line style="stroke:#181818;stroke-width:1.0;" x1="655.4756" x2="763.4746" y1="168.6797" y2="168.6797"/><text fill="#000000" font-family="sans-serif" font-size="14" lengthAdjust="spacing" textLength="8.9004" x="665.4756" y="186.6748">&#160;&#160;</text><text fill="#000000" font-family="sans-serif" font-size="14" font-weight="bold" lengthAdjust="spacing" textLength="79.0986" x="674.376" y="186.6748">Figure x.y</text><text fill="#000000" font-family="sans-serif" font-size="14" lengthAdjust="spacing" textLength="4.4502" x="665.4756" y="202.9717">&#160;</text><rect fill="#F1F1F1" height="67.25" rx="12.5" ry="12.5" style="stroke:#181818;stroke-width:1.5;" width="281.668" x="813.4746" y="140.875"/><text fill="#000000" font-family="sans-serif" font-size="18" font-weight="bold" lengthAdjust="spacing" textLength="261.668" x="823.4746" y="167.583">Data Management Report</text><line style="stroke:#181818;stroke-width:1.0;" x1="813.4746" x2="1095.1426" y1="176.8281" y2="176.8281"/><text fill="#000000" font-family="sans-serif" font-size="14" lengthAdjust="spacing" textLength="4.4502" x="823.4746" y="194.8232">&#160;</text><rect fill="#F1F1F1" height="67.25" rx="12.5" ry="12.5" style="stroke:#181818;stroke-width:1.5;" width="67.8389" x="1145.1426" y="97.25"/><text fill="#000000" font-family="sans-serif" font-size="18" font-weight="bold" lengthAdjust="spacing" textLength="47.8389" x="1155.1426" y="123.958">Data</text><line style="stroke:#181818;stroke-width:1.0;" x1="1145.1426" x2="1212.9814" y1="133.2031" y2="133.2031"/><text fill="#000000" font-family="sans-serif" font-size="14" lengthAdjust="spacing" textLength="4.4502" x="1155.1426" y="151.1982">&#160;</text><path d="M1095.1426,174.5 L1105.1426,174.5 C1120.1426,174.5 1120.1426,130.875 1135.1426,130.875 L1145.1426,130.875 " fill="none" style="stroke:#181818;stroke-width:1.0;"/><rect fill="#F1F1F1" height="67.25" rx="12.5" ry="12.5" style="stroke:#181818;stroke-width:1.5;" width="225.3828" x="1145.1426" y="184.5"/><text fill="#000000" font-family="sans-serif" font-size="18" font-weight="bold" lengthAdjust="spacing" textLength="205.3828" x="1155.1426" y="211.208">Technical Document</text><line style="stroke:#181818;stroke-width:1.0;" x1="1145.1426" x2="1370.5254" y1="220.4531" y2="220.4531"/><text fill="#000000" font-family="sans-serif" font-size="14" lengthAdjust="spacing" textLength="4.4502" x="1155.1426" y="238.4482">&#160;</text><path d="M1095.1426,174.5 L1105.1426,174.5 C1120.1426,174.5 1120.1426,218.125 1135.1426,218.125 L1145.1426,218.125 " fill="none" style="stroke:#181818;stroke-width:1.0;"/><path d="M763.4746,174.5 L773.4746,174.5 C788.4746,174.5 788.4746,174.5 803.4746,174.5 L813.4746,174.5 " fill="none" style="stroke:#181818;stroke-width:1.0;"/><path d="M605.4756,310.375 L615.4756,310.375 C630.4756,310.375 630.4756,174.5 645.4756,174.5 L655.4756,174.5 " fill="none" style="stroke:#181818;stroke-width:1.0;"/><rect fill="#F1F1F1" height="83.5469" rx="12.5" ry="12.5" style="stroke:#181818;stroke-width:1.5;" width="100.5615" x="655.4756" y="307.2266"/><text fill="#000000" font-family="sans-serif" font-size="18" font-weight="bold" lengthAdjust="spacing" textLength="55.6875" x="665.4756" y="333.9346">Table</text><line style="stroke:#181818;stroke-width:1.0;" x1="655.4756" x2="756.0371" y1="343.1797" y2="343.1797"/><text fill="#000000" font-family="sans-serif" font-size="14" lengthAdjust="spacing" textLength="8.9004" x="665.4756" y="361.1748">&#160;&#160;</text><text fill="#000000" font-family="sans-serif" font-size="14" font-weight="bold" lengthAdjust="spacing" textLength="71.6611" x="674.376" y="361.1748">Table x.y</text><text fill="#000000" font-family="sans-serif" font-size="14" lengthAdjust="spacing" textLength="4.4502" x="665.4756" y="377.4717">&#160;</text><rect fill="#F1F1F1" height="67.25" rx="12.5" ry="12.5" style="stroke:#181818;stroke-width:1.5;" width="281.668" x="806.0371" y="315.375"/><text fill="#000000" font-family="sans-serif" font-size="18" font-weight="bold" lengthAdjust="spacing" textLength="261.668" x="816.0371" y="342.083">Data Management Report</text><line style="stroke:#181818;stroke-width:1.0;" x1="806.0371" x2="1087.7051" y1="351.3281" y2="351.3281"/><text fill="#000000" font-family="sans-serif" font-size="14" lengthAdjust="spacing" textLength="4.4502" x="816.0371" y="369.3232">&#160;</text><rect fill="#F1F1F1" height="67.25" rx="12.5" ry="12.5" style="stroke:#181818;stroke-width:1.5;" width="67.8389" x="1137.7051" y="271.75"/><text fill="#000000" font-family="sans-serif" font-size="18" font-weight="bold" lengthAdjust="spacing" textLength="47.8389" x="1147.7051" y="298.458">Data</text><line style="stroke:#181818;stroke-width:1.0;" x1="1137.7051" x2="1205.5439" y1="307.7031" y2="307.7031"/><text fill="#000000" font-family="sans-serif" font-size="14" lengthAdjust="spacing" textLength="4.4502" x="1147.7051" y="325.6982">&#160;</text><path d="M1087.7051,349 L1097.7051,349 C1112.7051,349 1112.7051,305.375 1127.7051,305.375 L1137.7051,305.375 " fill="none" style="stroke:#181818;stroke-width:1.0;"/><rect fill="#F1F1F1" height="67.25" rx="12.5" ry="12.5" style="stroke:#181818;stroke-width:1.5;" width="225.3828" x="1137.7051" y="359"/><text fill="#000000" font-family="sans-serif" font-size="18" font-weight="bold" lengthAdjust="spacing" textLength="205.3828" x="1147.7051" y="385.708">Technical Document</text><line style="stroke:#181818;stroke-width:1.0;" x1="1137.7051" x2="1363.0879" y1="394.9531" y2="394.9531"/><text fill="#000000" font-family="sans-serif" font-size="14" lengthAdjust="spacing" textLength="4.4502" x="1147.7051" y="412.9482">&#160;</text><path d="M1087.7051,349 L1097.7051,349 C1112.7051,349 1112.7051,392.625 1127.7051,392.625 L1137.7051,392.625 " fill="none" style="stroke:#181818;stroke-width:1.0;"/><path d="M756.0371,349 L766.0371,349 C781.0371,349 781.0371,349 796.0371,349 L806.0371,349 " fill="none" style="stroke:#181818;stroke-width:1.0;"/><path d="M605.4756,310.375 L615.4756,310.375 C630.4756,310.375 630.4756,349 645.4756,349 L655.4756,349 " fill="none" style="stroke:#181818;stroke-width:1.0;"/><rect fill="#F1F1F1" height="67.25" rx="12.5" ry="12.5" style="stroke:#181818;stroke-width:1.5;" width="281.668" x="655.4756" y="489.875"/><text fill="#000000" font-family="sans-serif" font-size="18" font-weight="bold" lengthAdjust="spacing" textLength="261.668" x="665.4756" y="516.583">Data Management Report</text><line style="stroke:#181818;stroke-width:1.0;" x1="655.4756" x2="937.1436" y1="525.8281" y2="525.8281"/><text fill="#000000" font-family="sans-serif" font-size="14" lengthAdjust="spacing" textLength="4.4502" x="665.4756" y="543.8232">&#160;</text><rect fill="#F1F1F1" height="67.25" rx="12.5" ry="12.5" style="stroke:#181818;stroke-width:1.5;" width="67.8389" x="987.1436" y="446.25"/><text fill="#000000" font-family="sans-serif" font-size="18" font-weight="bold" lengthAdjust="spacing" textLength="47.8389" x="997.1436" y="472.958">Data</text><line style="stroke:#181818;stroke-width:1.0;" x1="987.1436" x2="1054.9824" y1="482.2031" y2="482.2031"/><text fill="#000000" font-family="sans-serif" font-size="14" lengthAdjust="spacing" textLength="4.4502" x="997.1436" y="500.1982">&#160;</text><path d="M937.1436,523.5 L947.1436,523.5 C962.1436,523.5 962.1436,479.875 977.1436,479.875 L987.1436,479.875 " fill="none" style="stroke:#181818;stroke-width:1.0;"/><rect fill="#F1F1F1" height="67.25" rx="12.5" ry="12.5" style="stroke:#181818;stroke-width:1.5;" width="225.3828" x="987.1436" y="533.5"/><text fill="#000000" font-family="sans-serif" font-size="18" font-weight="bold" lengthAdjust="spacing" textLength="205.3828" x="997.1436" y="560.208">Technical Document</text><line style="stroke:#181818;stroke-width:1.0;" x1="987.1436" x2="1212.5264" y1="569.4531" y2="569.4531"/><text fill="#000000" font-family="sans-serif" font-size="14" lengthAdjust="spacing" textLength="4.4502" x="997.1436" y="587.4482">&#160;</text><path d="M937.1436,523.5 L947.1436,523.5 C962.1436,523.5 962.1436,567.125 977.1436,567.125 L987.1436,567.125 " fill="none" style="stroke:#181818;stroke-width:1.0;"/><path d="M605.4756,310.375 L615.4756,310.375 C630.4756,310.375 630.4756,523.5 645.4756,523.5 L655.4756,523.5 " fill="none" style="stroke:#181818;stroke-width:1.0;"/><path d="M449.2881,681.1875 L459.2881,681.1875 C474.2881,681.1875 474.2881,310.375 489.2881,310.375 L499.2881,310.375 " fill="none" style="stroke:#181818;stroke-width:1.0;"/><rect fill="#F1F1F1" height="83.5469" rx="12.5" ry="12.5" style="stroke:#181818;stroke-width:1.5;" width="105.6064" x="499.2881" y="939.7891"/><text fill="#000000" font-family="sans-serif" font-size="18" font-weight="bold" lengthAdjust="spacing" textLength="80.7451" x="509.2881" y="966.4971">Chapter</text><line style="stroke:#181818;stroke-width:1.0;" x1="499.2881" x2="604.8945" y1="975.7422" y2="975.7422"/><text fill="#000000" font-family="sans-serif" font-size="14" lengthAdjust="spacing" textLength="8.9004" x="509.2881" y="993.7373">&#160;&#160;</text><text fill="#000000" font-family="sans-serif" font-size="14" font-weight="bold" lengthAdjust="spacing" textLength="76.7061" x="518.1885" y="993.7373">Chapter x</text><text fill="#000000" font-family="sans-serif" font-size="14" lengthAdjust="spacing" textLength="4.4502" x="509.2881" y="1010.0342">&#160;</text><rect fill="#F1F1F1" height="67.25" rx="12.5" ry="12.5" style="stroke:#181818;stroke-width:1.5;" width="123.1748" x="654.8945" y="620.75"/><text fill="#000000" font-family="sans-serif" font-size="18" font-weight="bold" lengthAdjust="spacing" textLength="103.1748" x="664.8945" y="647.458">Document</text><line style="stroke:#181818;stroke-width:1.0;" x1="654.8945" x2="778.0693" y1="656.7031" y2="656.7031"/><text fill="#000000" font-family="sans-serif" font-size="14" lengthAdjust="spacing" textLength="4.4502" x="664.8945" y="674.6982">&#160;</text><path d="M604.8945,981.5625 L614.8945,981.5625 C629.8945,981.5625 629.8945,654.375 644.8945,654.375 L654.8945,654.375 " fill="none" style="stroke:#181818;stroke-width:1.0;"/><rect fill="#F1F1F1" height="83.5469" rx="12.5" ry="12.5" style="stroke:#181818;stroke-width:1.5;" width="107.999" x="654.8945" y="743.4766"/><text fill="#000000" font-family="sans-serif" font-size="18" font-weight="bold" lengthAdjust="spacing" textLength="65.25" x="664.8945" y="770.1846">Figure</text><line style="stroke:#181818;stroke-width:1.0;" x1="654.8945" x2="762.8936" y1="779.4297" y2="779.4297"/><text fill="#000000" font-family="sans-serif" font-size="14" lengthAdjust="spacing" textLength="8.9004" x="664.8945" y="797.4248">&#160;&#160;</text><text fill="#000000" font-family="sans-serif" font-size="14" font-weight="bold" lengthAdjust="spacing" textLength="79.0986" x="673.7949" y="797.4248">Figure x.y</text><text fill="#000000" font-family="sans-serif" font-size="14" lengthAdjust="spacing" textLength="4.4502" x="664.8945" y="813.7217">&#160;</text><rect fill="#F1F1F1" height="67.25" rx="12.5" ry="12.5" style="stroke:#181818;stroke-width:1.5;" width="281.668" x="812.8936" y="751.625"/><text fill="#000000" font-family="sans-serif" font-size="18" font-weight="bold" lengthAdjust="spacing" textLength="261.668" x="822.8936" y="778.333">Data Management Report</text><line style="stroke:#181818;stroke-width:1.0;" x1="812.8936" x2="1094.5615" y1="787.5781" y2="787.5781"/><text fill="#000000" font-family="sans-serif" font-size="14" lengthAdjust="spacing" textLength="4.4502" x="822.8936" y="805.5732">&#160;</text><rect fill="#F1F1F1" height="67.25" rx="12.5" ry="12.5" style="stroke:#181818;stroke-width:1.5;" width="67.8389" x="1144.5615" y="708"/><text fill="#000000" font-family="sans-serif" font-size="18" font-weight="bold" lengthAdjust="spacing" textLength="47.8389" x="1154.5615" y="734.708">Data</text><line style="stroke:#181818;stroke-width:1.0;" x1="1144.5615" x2="1212.4004" y1="743.9531" y2="743.9531"/><text fill="#000000" font-family="sans-serif" font-size="14" lengthAdjust="spacing" textLength="4.4502" x="1154.5615" y="761.9482">&#160;</text><path d="M1094.5615,785.25 L1104.5615,785.25 C1119.5615,785.25 1119.5615,741.625 1134.5615,741.625 L1144.5615,741.625 " fill="none" style="stroke:#181818;stroke-width:1.0;"/><rect fill="#F1F1F1" height="67.25" rx="12.5" ry="12.5" style="stroke:#181818;stroke-width:1.5;" width="225.3828" x="1144.5615" y="795.25"/><text fill="#000000" font-family="sans-serif" font-size="18" font-weight="bold" lengthAdjust="spacing" textLength="205.3828" x="1154.5615" y="821.958">Technical Document</text><line style="stroke:#181818;stroke-width:1.0;" x1="1144.5615" x2="1369.9443" y1="831.2031" y2="831.2031"/><text fill="#000000" font-family="sans-serif" font-size="14" lengthAdjust="spacing" textLength="4.4502" x="1154.5615" y="849.1982">&#160;</text><path d="M1094.5615,785.25 L1104.5615,785.25 C1119.5615,785.25 1119.5615,828.875 1134.5615,828.875 L1144.5615,828.875 " fill="none" style="stroke:#181818;stroke-width:1.0;"/><path d="M762.8936,785.25 L772.8936,785.25 C787.8936,785.25 787.8936,785.25 802.8936,785.25 L812.8936,785.25 " fill="none" style="stroke:#181818;stroke-width:1.0;"/><path d="M604.8945,981.5625 L614.8945,981.5625 C629.8945,981.5625 629.8945,785.25 644.8945,785.25 L654.8945,785.25 " fill="none" style="stroke:#181818;stroke-width:1.0;"/><rect fill="#F1F1F1" height="83.5469" rx="12.5" ry="12.5" style="stroke:#181818;stroke-width:1.5;" width="100.5615" x="654.8945" y="917.9766"/><text fill="#000000" font-family="sans-serif" font-size="18" font-weight="bold" lengthAdjust="spacing" textLength="55.6875" x="664.8945" y="944.6846">Table</text><line style="stroke:#181818;stroke-width:1.0;" x1="654.8945" x2="755.4561" y1="953.9297" y2="953.9297"/><text fill="#000000" font-family="sans-serif" font-size="14" lengthAdjust="spacing" textLength="8.9004" x="664.8945" y="971.9248">&#160;&#160;</text><text fill="#000000" font-family="sans-serif" font-size="14" font-weight="bold" lengthAdjust="spacing" textLength="71.6611" x="673.7949" y="971.9248">Table x.y</text><text fill="#000000" font-family="sans-serif" font-size="14" lengthAdjust="spacing" textLength="4.4502" x="664.8945" y="988.2217">&#160;</text><rect fill="#F1F1F1" height="67.25" rx="12.5" ry="12.5" style="stroke:#181818;stroke-width:1.5;" width="281.668" x="805.4561" y="926.125"/><text fill="#000000" font-family="sans-serif" font-size="18" font-weight="bold" lengthAdjust="spacing" textLength="261.668" x="815.4561" y="952.833">Data Management Report</text><line style="stroke:#181818;stroke-width:1.0;" x1="805.4561" x2="1087.124" y1="962.0781" y2="962.0781"/><text fill="#000000" font-family="sans-serif" font-size="14" lengthAdjust="spacing" textLength="4.4502" x="815.4561" y="980.0732">&#160;</text><rect fill="#F1F1F1" height="67.25" rx="12.5" ry="12.5" style="stroke:#181818;stroke-width:1.5;" width="67.8389" x="1137.124" y="882.5"/><text fill="#000000" font-family="sans-serif" font-size="18" font-weight="bold" lengthAdjust="spacing" textLength="47.8389" x="1147.124" y="909.208">Data</text><line style="stroke:#181818;stroke-width:1.0;" x1="1137.124" x2="1204.9629" y1="918.4531" y2="918.4531"/><text fill="#000000" font-family="sans-serif" font-size="14" lengthAdjust="spacing" textLength="4.4502" x="1147.124" y="936.4482">&#160;</text><path d="M1087.124,959.75 L1097.124,959.75 C1112.124,959.75 1112.124,916.125 1127.124,916.125 L1137.124,916.125 " fill="none" style="stroke:#181818;stroke-width:1.0;"/><rect fill="#F1F1F1" height="67.25" rx="12.5" ry="12.5" style="stroke:#181818;stroke-width:1.5;" width="225.3828" x="1137.124" y="969.75"/><text fill="#000000" font-family="sans-serif" font-size="18" font-weight="bold" lengthAdjust="spacing" textLength="205.3828" x="1147.124" y="996.458">Technical Document</text><line style="stroke:#181818;stroke-width:1.0;" x1="1137.124" x2="1362.5068" y1="1005.7031" y2="1005.7031"/><text fill="#000000" font-family="sans-serif" font-size="14" lengthAdjust="spacing" textLength="4.4502" x="1147.124" y="1023.6982">&#160;</text><path d="M1087.124,959.75 L1097.124,959.75 C1112.124,959.75 1112.124,1003.375 1127.124,1003.375 L1137.124,1003.375 " fill="none" style="stroke:#181818;stroke-width:1.0;"/><path d="M755.4561,959.75 L765.4561,959.75 C780.4561,959.75 780.4561,959.75 795.4561,959.75 L805.4561,959.75 " fill="none" style="stroke:#181818;stroke-width:1.0;"/><path d="M604.8945,981.5625 L614.8945,981.5625 C629.8945,981.5625 629.8945,959.75 644.8945,959.75 L654.8945,959.75 " fill="none" style="stroke:#181818;stroke-width:1.0;"/><rect fill="#F1F1F1" height="67.25" rx="12.5" ry="12.5" style="stroke:#181818;stroke-width:1.5;" width="281.668" x="654.8945" y="1100.625"/><text fill="#000000" font-family="sans-serif" font-size="18" font-weight="bold" lengthAdjust="spacing" textLength="261.668" x="664.8945" y="1127.333">Data Management Report</text><line style="stroke:#181818;stroke-width:1.0;" x1="654.8945" x2="936.5625" y1="1136.5781" y2="1136.5781"/><text fill="#000000" font-family="sans-serif" font-size="14" lengthAdjust="spacing" textLength="4.4502" x="664.8945" y="1154.5732">&#160;</text><rect fill="#F1F1F1" height="67.25" rx="12.5" ry="12.5" style="stroke:#181818;stroke-width:1.5;" width="67.8389" x="986.5625" y="1057"/><text fill="#000000" font-family="sans-serif" font-size="18" font-weight="bold" lengthAdjust="spacing" textLength="47.8389" x="996.5625" y="1083.708">Data</text><line style="stroke:#181818;stroke-width:1.0;" x1="986.5625" x2="1054.4014" y1="1092.9531" y2="1092.9531"/><text fill="#000000" font-family="sans-serif" font-size="14" lengthAdjust="spacing" textLength="4.4502" x="996.5625" y="1110.9482">&#160;</text><path d="M936.5625,1134.25 L946.5625,1134.25 C961.5625,1134.25 961.5625,1090.625 976.5625,1090.625 L986.5625,1090.625 " fill="none" style="stroke:#181818;stroke-width:1.0;"/><rect fill="#F1F1F1" height="67.25" rx="12.5" ry="12.5" style="stroke:#181818;stroke-width:1.5;" width="225.3828" x="986.5625" y="1144.25"/><text fill="#000000" font-family="sans-serif" font-size="18" font-weight="bold" lengthAdjust="spacing" textLength="205.3828" x="996.5625" y="1170.958">Technical Document</text><line style="stroke:#181818;stroke-width:1.0;" x1="986.5625" x2="1211.9453" y1="1180.2031" y2="1180.2031"/><text fill="#000000" font-family="sans-serif" font-size="14" lengthAdjust="spacing" textLength="4.4502" x="996.5625" y="1198.1982">&#160;</text><path d="M936.5625,1134.25 L946.5625,1134.25 C961.5625,1134.25 961.5625,1177.875 976.5625,1177.875 L986.5625,1177.875 " fill="none" style="stroke:#181818;stroke-width:1.0;"/><path d="M604.8945,981.5625 L614.8945,981.5625 C629.8945,981.5625 629.8945,1134.25 644.8945,1134.25 L654.8945,1134.25 " fill="none" style="stroke:#181818;stroke-width:1.0;"/><rect fill="#F1F1F1" height="67.25" rx="12.5" ry="12.5" style="stroke:#181818;stroke-width:1.5;" width="107.4951" x="654.8945" y="1187.875"/><text fill="#000000" font-family="sans-serif" font-size="18" font-weight="bold" lengthAdjust="spacing" textLength="87.4951" x="664.8945" y="1214.583">Glossary</text><line style="stroke:#181818;stroke-width:1.0;" x1="654.8945" x2="762.3896" y1="1223.8281" y2="1223.8281"/><text fill="#000000" font-family="sans-serif" font-size="14" lengthAdjust="spacing" textLength="4.4502" x="664.8945" y="1241.8232">&#160;</text><path d="M604.8945,981.5625 L614.8945,981.5625 C629.8945,981.5625 629.8945,1221.5 644.8945,1221.5 L654.8945,1221.5 " fill="none" style="stroke:#181818;stroke-width:1.0;"/><rect fill="#F1F1F1" height="67.25" rx="12.5" ry="12.5" style="stroke:#181818;stroke-width:1.5;" width="148.8213" x="654.8945" y="1275.125"/><text fill="#000000" font-family="sans-serif" font-size="18" font-weight="bold" lengthAdjust="spacing" textLength="128.8213" x="664.8945" y="1301.833">Bibliography</text><line style="stroke:#181818;stroke-width:1.0;" x1="654.8945" x2="803.7158" y1="1311.0781" y2="1311.0781"/><text fill="#000000" font-family="sans-serif" font-size="14" lengthAdjust="spacing" textLength="4.4502" x="664.8945" y="1329.0732">&#160;</text><path d="M604.8945,981.5625 L614.8945,981.5625 C629.8945,981.5625 629.8945,1308.75 644.8945,1308.75 L654.8945,1308.75 " fill="none" style="stroke:#181818;stroke-width:1.0;"/><path d="M449.2881,681.1875 L459.2881,681.1875 C474.2881,681.1875 474.2881,981.5625 489.2881,981.5625 L499.2881,981.5625 " fill="none" style="stroke:#181818;stroke-width:1.0;"/><path d="M82.3281,681.1875 L92.3281,681.1875 C107.3281,681.1875 107.3281,681.1875 122.3281,681.1875 L132.3281,681.1875 " fill="none" style="stroke:#181818;stroke-width:1.0;"/><rect fill="#F1F1F1" height="67.25" rx="12.5" ry="12.5" style="stroke:#181818;stroke-width:1.5;" width="106.0537" x="132.3281" y="741.7969"/><text fill="#000000" font-family="sans-serif" font-size="18" font-weight="bold" lengthAdjust="spacing" textLength="86.0537" x="142.3281" y="768.5049">Decision</text><line style="stroke:#181818;stroke-width:1.0;" x1="132.3281" x2="238.3818" y1="777.75" y2="777.75"/><text fill="#000000" font-family="sans-serif" font-size="14" lengthAdjust="spacing" textLength="4.4502" x="142.3281" y="795.7451">&#160;</text><path d="M82.3281,681.1875 L92.3281,681.1875 C107.3281,681.1875 107.3281,775.4219 122.3281,775.4219 L132.3281,775.4219 " fill="none" style="stroke:#181818;stroke-width:1.0;"/><!--SRC=[xLHBJyCm3BxdL_Z8Acq2n4j3I3369iOgfeqXuEPsfereaofn1_lt9DsZ0o740N6Yjtp-7d4jvzmo6iwbckLO2DOPFJCKm1gCJ5A6cJGKizHAYA1zTdOzwbnDHDDzubG47hcmbgpDIV4I1WY2XyUd801E3H5an4m6qDCy2p2A3CqbLgQdphQocOp2MZz4bPIOK11KAPxGrN5PXQo1danAGxLcUOQtrcAZyZ9aX12LCwl2nrHemtK3DUipTaTngcIC6MoYjnYkZb6s5LyT_oxz1yvV67_dkvp3POg56rVTrmg0jwglpyFOqlwFvDT7igptCsqjciL7j2EZJEh4O94kjlUnIx6qVhDMs3cvpLvjjnXbg7WQ3c5EnfDWhxM_kt_GEew8yN1dgbwKVbKGwxoGxjUnpAaXTlgZ8LXTcfZSQs3PoAZqkziG0vmZZ4lbUMsuBKWDkZTh0AxKN1gjgeO6zs5DE3feTYJ3X8ox1jo7ealFM6Ri5B6UIPMqONhNQvw8zJFG1bBYKZjVit2roJi0]--></g></svg>